<?xml version="1.0" encoding="utf-8"?>
<!-- Generator: Adobe Illustrator 25.2.3, SVG Export Plug-In . SVG Version: 6.00 Build 0)  -->
<svg version="1.1" xmlns="http://www.w3.org/2000/svg" xmlns:xlink="http://www.w3.org/1999/xlink" x="0px" y="0px"
	 viewBox="0 0 512 512" style="enable-background:new 0 0 512 512;" xml:space="preserve">
<style type="text/css">
	.st0{fill:url(#SVGID_1_);}
	.st1{fill:#FFFFFF;}
</style>
<g id="Layer_2">
	<linearGradient id="SVGID_1_" gradientUnits="userSpaceOnUse" x1="9.094947e-13" y1="512" x2="512" y2="9.663381e-13">
		<stop  offset="0" style="stop-color:#6699FF"/>
		<stop  offset="1" style="stop-color:#4440D1"/>
	</linearGradient>
	<rect class="st0" width="512" height="512"/>
</g>
<g id="Layer_1" focusable="false">
	<path class="st1" d="M474.5,54.7c-9.9,33.1-29.4,95.6-52.5,160.6c6,1.8,11.5,3.4,15.9,4.8c7.3,2.2,11.4,9.9,9.1,17.2
		c-0.3,0.8-0.6,1.7-1,2.4c-18.9,36.2-70.8,130.8-121.9,183.5c-0.9,0.9-1.7,2.1-2.6,3c-65.1,65.1-170.7,65.1-235.8,0
		s-65.1-170.7,0-235.8l0,0c0.9-0.9,2.1-1.7,3-2.6c52.7-51.3,147.2-103,183.5-121.9c6.7-3.6,15-1,18.6,5.7c0.4,0.8,0.8,1.6,1,2.5
		c1.4,4.4,3,9.9,4.8,15.9c64.9-23.1,127.5-42.5,160.6-52.5c7.3-2.2,15.1,1.9,17.3,9.2C475.2,49.4,475.3,52.1,474.5,54.7z
		 M310.7,310.8c0-60.5-49-109.5-109.5-109.5c-60.5,0-109.5,49-109.5,109.5c0,60.5,49,109.5,109.5,109.5
		C261.7,420.3,310.7,371.3,310.7,310.8C310.7,310.8,310.7,310.8,310.7,310.8z M201.2,283.4c0,15.1-12.3,27.4-27.4,27.4
		c-15.1,0-27.4-12.3-27.4-27.4c0-15.1,12.3-27.4,27.4-27.4C188.9,256,201.2,268.2,201.2,283.4C201.2,283.3,201.2,283.4,201.2,283.4
		L201.2,283.4z M228.6,351.8c0,7.6-6.1,13.7-13.7,13.7c-7.6,0-13.7-6.1-13.7-13.7c0-7.6,6.1-13.7,13.7-13.7
		C222.4,338.2,228.5,344.3,228.6,351.8L228.6,351.8z"/>
</g>
</svg>
